<svg width="931.05" height="108.001" viewBox="0 0 931.05 108.001" xmlns="http://www.w3.org/2000/svg">
	<g id="svgGroup" stroke-linecap="round" fill-rule="evenodd" font-size="9pt" stroke="#000" stroke-width="0.25mm" fill="none" style="stroke:#000;stroke-width:0.25mm;fill:none">
		<path d="M 97.2 102.451 L 84.15 107.701 L 72.45 77.701 L 23.85 77.701 L 12.15 107.401 L 0 102.451 L 41.1 1.201 L 56.7 1.201 L 97.2 102.451 Z M 48.15 15.301 L 28.35 65.701 L 67.8 65.701 L 48.15 15.301 Z" id="0" vector-effect="non-scaling-stroke"/>
		<path d="M 125.7 106.201 L 112.2 106.201 L 112.2 1.201 L 131.1 1.201 L 177.45 88.501 L 177.45 1.201 L 190.95 1.201 L 190.95 106.201 L 172.35 106.201 L 125.7 19.501 L 125.7 106.201 Z" id="1" vector-effect="non-scaling-stroke"/>
		<path d="M 232.2 106.201 L 217.95 106.201 L 217.95 1.201 L 232.2 1.201 L 232.2 106.201 Z" id="2" vector-effect="non-scaling-stroke"/>
		<path d="M 293.7 106.201 L 279.45 106.201 L 279.45 13.801 L 247.2 13.801 L 247.2 1.201 L 325.95 1.201 L 325.95 13.801 L 293.7 13.801 L 293.7 106.201 Z" id="3" vector-effect="non-scaling-stroke"/>
		<path d="M 461.1 97.801 L 451.2 108.001 L 400.2 57.901 L 400.2 106.201 L 385.95 106.201 L 385.95 1.201 L 400.2 1.201 L 400.2 49.051 L 444.9 0.751 L 454.5 9.601 L 413.55 52.201 L 461.1 97.801 Z" id="5" vector-effect="non-scaling-stroke"/>
		<path d="M 535.35 106.201 L 521.1 106.201 L 521.1 1.501 A 168.426 168.426 0 0 1 527.569 0.845 A 221.334 221.334 0 0 1 534.675 0.376 Q 542.1 0.001 550.05 0.001 A 68.937 68.937 0 0 1 560.009 0.682 Q 565.328 1.459 569.807 3.124 A 39.016 39.016 0 0 1 572.25 4.126 A 36.91 36.91 0 0 1 579.872 8.669 A 29.06 29.06 0 0 1 586.2 15.451 A 28.72 28.72 0 0 1 590.969 30.475 A 35.095 35.095 0 0 1 591 31.951 A 37.887 37.887 0 0 1 589.938 41.134 A 28.902 28.902 0 0 1 585.45 51.001 A 33.468 33.468 0 0 1 574.123 60.945 A 42.098 42.098 0 0 1 570 62.926 A 52.162 52.162 0 0 1 557.866 66.261 A 70.791 70.791 0 0 1 547.05 67.051 A 156.035 156.035 0 0 1 540.247 66.909 A 124.393 124.393 0 0 1 535.35 66.601 L 535.35 106.201 Z M 535.35 12.601 L 535.35 54.451 A 71.953 71.953 0 0 0 537.298 54.665 Q 539.044 54.835 541.2 54.976 A 102.132 102.132 0 0 0 544.838 55.145 A 136.698 136.698 0 0 0 548.85 55.201 A 47.746 47.746 0 0 0 556.92 54.563 Q 561.239 53.821 564.695 52.217 A 22.831 22.831 0 0 0 569.55 49.201 A 19.345 19.345 0 0 0 576.833 35.037 A 25.98 25.98 0 0 0 576.9 33.151 A 21.678 21.678 0 0 0 575.759 25.961 A 18.203 18.203 0 0 0 569.85 17.701 Q 564.246 13.17 554.85 12.241 A 51.87 51.87 0 0 0 549.75 12.001 A 196.687 196.687 0 0 0 544.863 12.06 A 164.905 164.905 0 0 0 542.1 12.151 A 136.911 136.911 0 0 0 537.776 12.397 A 112.559 112.559 0 0 0 535.35 12.601 Z" id="7" vector-effect="non-scaling-stroke"/>
		<path d="M 671.25 106.201 L 608.25 106.201 L 608.25 1.201 L 671.25 1.201 L 671.25 13.501 L 622.5 13.501 L 622.5 45.451 L 664.5 45.451 L 664.5 57.451 L 622.5 57.451 L 622.5 93.901 L 671.25 93.901 L 671.25 106.201 Z" id="8" vector-effect="non-scaling-stroke"/>
		<path d="M 726 106.201 L 711.75 106.201 L 711.75 13.801 L 679.5 13.801 L 679.5 1.201 L 758.25 1.201 L 758.25 13.801 L 726 13.801 L 726 106.201 Z" id="9" vector-effect="non-scaling-stroke"/>
		<path d="M 836.25 106.201 L 773.25 106.201 L 773.25 1.201 L 836.25 1.201 L 836.25 13.501 L 787.5 13.501 L 787.5 45.451 L 829.5 45.451 L 829.5 57.451 L 787.5 57.451 L 787.5 93.901 L 836.25 93.901 L 836.25 106.201 Z" id="10" vector-effect="non-scaling-stroke"/>
		<path d="M 931.05 101.701 L 917.7 108.001 L 904.65 79.501 Q 900.741 71.09 895.24 66.515 A 24.316 24.316 0 0 0 892.2 64.351 A 29.478 29.478 0 0 0 883.949 61.047 Q 880.262 60.15 875.947 59.926 A 56.771 56.771 0 0 0 873 59.851 L 870.75 59.851 L 870.75 106.201 L 856.5 106.201 L 856.5 1.501 A 371.851 371.851 0 0 1 868.045 0.587 A 323.669 323.669 0 0 1 871.725 0.376 A 281.911 281.911 0 0 1 881.2 0.054 A 339.402 339.402 0 0 1 887.25 0.001 Q 906.45 0.001 916.125 7.801 Q 925.78 15.585 925.8 27.85 A 31.288 31.288 0 0 1 925.8 27.901 A 29.82 29.82 0 0 1 924.824 35.731 A 22.008 22.008 0 0 1 919.275 45.526 A 31.534 31.534 0 0 1 911.889 51.042 Q 906.984 53.748 900.45 55.501 A 35.485 35.485 0 0 1 905.593 58.295 A 30.641 30.641 0 0 1 907.65 59.776 Q 910.603 62.096 913.358 65.866 A 43.941 43.941 0 0 1 913.725 66.376 A 46.667 46.667 0 0 1 915.929 69.818 Q 917.775 72.976 919.65 77.101 L 931.05 101.701 Z M 870.75 12.601 L 870.75 47.851 L 887.25 47.851 Q 898.05 47.851 904.8 43.051 Q 911.55 38.251 911.55 29.251 A 14.717 14.717 0 0 0 906.64 18.055 A 19.909 19.909 0 0 0 905.25 16.876 A 20.884 20.884 0 0 0 898.704 13.543 Q 893.831 12.001 887.25 12.001 A 298.818 298.818 0 0 0 882.699 12.034 Q 880.252 12.071 878.1 12.151 Q 874.05 12.301 870.75 12.601 Z" id="11" vector-effect="non-scaling-stroke"/>
	</g>
</svg>
